<?xml version="1.0" encoding="UTF-8"?>
<svg version="1.1" xmlns="http://www.w3.org/2000/svg" width="198" height="205">
<path d="M0 0 C65.34 0 130.68 0 198 0 C198 67.65 198 135.3 198 205 C132.66 205 67.32 205 0 205 C0 137.35 0 69.7 0 0 Z " fill="#FEFEFC" transform="translate(0,0)"/>
<path d="M0 0 C13.40910246 11.69773052 22.33647483 24.97781369 23.7734375 43.23046875 C24.55931203 60.30151257 19.2431577 74.9853016 8.1640625 88.01953125 C-2.09683139 98.94961387 -16.19179817 107.53459843 -31.50390625 108.23046875 C-41.51470109 108.40039644 -50.4437947 108.29139187 -59.6484375 103.89453125 C-60.5765625 103.47042969 -61.5046875 103.04632813 -62.4609375 102.609375 C-78.76037792 94.4822929 -89.32588531 80.50596059 -95.4609375 63.6640625 C-99.97895786 47.4431144 -95.86909346 30.22490856 -88.09375 15.8125 C-84.3673307 9.46453385 -79.17890739 4.6635039 -73.6484375 -0.10546875 C-73.02066406 -0.6571875 -72.39289063 -1.20890625 -71.74609375 -1.77734375 C-51.68352504 -17.67042997 -19.43094347 -15.44731347 0 0 Z " fill="#EEC14A" transform="translate(130.6484375,68.10546875)"/>
<path d="M0 0 C13.40910246 11.69773052 22.33647483 24.97781369 23.7734375 43.23046875 C24.55931203 60.30151257 19.2431577 74.9853016 8.1640625 88.01953125 C-2.09683139 98.94961387 -16.19179817 107.53459843 -31.50390625 108.23046875 C-41.51470109 108.40039644 -50.4437947 108.29139187 -59.6484375 103.89453125 C-60.5765625 103.47042969 -61.5046875 103.04632813 -62.4609375 102.609375 C-78.76037792 94.4822929 -89.32588531 80.50596059 -95.4609375 63.6640625 C-99.97895786 47.4431144 -95.86909346 30.22490856 -88.09375 15.8125 C-84.3673307 9.46453385 -79.17890739 4.6635039 -73.6484375 -0.10546875 C-73.02066406 -0.6571875 -72.39289063 -1.20890625 -71.74609375 -1.77734375 C-51.68352504 -17.67042997 -19.43094347 -15.44731347 0 0 Z M-74.875 16.484375 C-76.61905072 18.8926493 -78.16832261 21.3170898 -79.6484375 23.89453125 C-80.05578125 24.57257813 -80.463125 25.250625 -80.8828125 25.94921875 C-86.82574071 36.67232835 -87.30480702 49.96051419 -84.0234375 61.58203125 C-81.97742853 67.55436026 -79.27282971 72.7363912 -75.6484375 77.89453125 C-75.20886719 78.53003906 -74.76929688 79.16554688 -74.31640625 79.8203125 C-70.12818768 85.26378966 -64.52528503 88.49214584 -58.6484375 91.89453125 C-57.6378125 92.49265625 -56.6271875 93.09078125 -55.5859375 93.70703125 C-42.83757356 98.86062518 -29.22330799 98.0714792 -16.6484375 92.89453125 C-13.11777715 91.13660805 -9.87463668 89.15973493 -6.6484375 86.89453125 C-6.02453125 86.4665625 -5.400625 86.03859375 -4.7578125 85.59765625 C5.94074565 77.40506668 10.21753644 65.67167462 12.3515625 52.89453125 C12.71048974 49.79303178 12.72513236 46.99063296 12.3515625 43.89453125 C12.24585938 43.01410156 12.14015625 42.13367188 12.03125 41.2265625 C9.98611075 27.74723565 3.40142579 16.58788819 -7.2734375 8.01953125 C-29.28168482 -7.30371095 -57.32042441 -3.93436818 -74.875 16.484375 Z " fill="#ECC24E" transform="translate(130.6484375,68.10546875)"/>
<path d="M0 0 C11.59649792 9.30812233 17.87212163 21.27480575 19.625 35.875 C19.71007812 36.58011719 19.79515625 37.28523438 19.8828125 38.01171875 C20.65629404 51.54764578 15.35566017 63.88141415 6.625 73.875 C-2.98640349 83.42439443 -15.14086542 88.80315412 -28.625 89.1875 C-42.23295879 88.92036917 -54.50570071 84.24111041 -64.53125 74.9140625 C-74.20346618 64.21724715 -78.74640971 51.58154088 -78.5859375 37.34765625 C-77.83434733 24.97425509 -72.70131583 12.30058513 -63.375 3.875 C-44.03640999 -11.64362161 -21.0501676 -14.65617919 0 0 Z M-63.625 11.1875 C-72.1337359 21.70524299 -74.41792169 33.633855 -73.375 46.875 C-71.06317458 59.32009611 -64.7455026 69.55024862 -54.375 76.875 C-42.8337699 83.79605665 -29.93141972 86.19170781 -16.765625 83 C-4.83629809 78.74352655 4.42498449 71.19087219 10.375 60 C15.63861166 48.71116085 16.78313883 35.85666303 12.5625 24 C7.00947393 11.25150352 -1.86195006 3.42741444 -14.375 -2.125 C-15.10332031 -2.49238281 -15.83164063 -2.85976562 -16.58203125 -3.23828125 C-34.05707659 -8.78630264 -51.64938084 -1.7303633 -63.625 11.1875 Z " fill="#D3991E" transform="translate(123.375,76.125)"/>
<path d="M0 0 C-1.26666667 17.53333333 -1.26666667 17.53333333 -4 23 C-4.7425 22.67 -5.485 22.34 -6.25 22 C-9.13883312 20.77217129 -9.13883312 20.77217129 -13 21 C-15.26240228 22.58991199 -15.26240228 22.58991199 -17.3125 24.75 C-18.03050781 25.44609375 -18.74851562 26.1421875 -19.48828125 26.859375 C-21.23823997 28.82721067 -21.23823997 28.82721067 -20.76245117 30.89941406 C-19.91338605 33.23862517 -18.85002933 34.79681313 -17.3125 36.75 C-16.77882813 37.4409375 -16.24515625 38.131875 -15.6953125 38.84375 C-15.13585937 39.5553125 -14.57640625 40.266875 -14 41 C-12.88985253 42.4119848 -11.78544501 43.82850598 -10.6875 45.25 C-10.19636719 45.87390625 -9.70523438 46.4978125 -9.19921875 47.140625 C-7.93620177 49.09891843 -7.42817633 50.72310937 -7 53 C-11.15649198 53.6234738 -14.86483672 53.84422038 -19 53 C-22.41033879 50.11555458 -24.67411962 46.78701037 -27 43 C-27.66 42.01 -28.32 41.02 -29 40 C-30.98 40.66 -32.96 41.32 -35 42 C-35 45.63 -35 49.26 -35 53 C-38.3 53 -41.6 53 -45 53 C-45 37.16 -45 21.32 -45 5 C-41.7 5 -38.4 5 -35 5 C-34.67 12.26 -34.34 19.52 -34 27 C-29.05 22.05 -24.1 17.1 -19 12 C-20.32 10.35 -21.64 8.7 -23 7 C-22.67 6.01 -22.34 5.02 -22 4 C-20.29760742 3.29223633 -20.29760742 3.29223633 -18.10546875 2.83203125 C-17.31462891 2.66123047 -16.52378906 2.49042969 -15.70898438 2.31445312 C-14.87689453 2.14880859 -14.04480469 1.98316406 -13.1875 1.8125 C-12.36701172 1.63525391 -11.54652344 1.45800781 -10.70117188 1.27539062 C-6.99312488 0.49649024 -3.82083679 0 0 0 Z " fill="#D3991D" transform="translate(121,87)"/>
<path d="M0 0 C3 1 3 1 4.0703125 2.85546875 C4.41835937 3.62503906 4.76640625 4.39460938 5.125 5.1875 C7.92122139 10.57345259 11.78909324 13.1050518 17 16 C14.79728418 18.37215549 12.88779229 20.06445975 10.0625 21.6875 C5.97009554 24.77768296 4.19913903 28.44603069 2 33 C-1 32 -1 32 -2.0703125 30.109375 C-2.41835937 29.33078125 -2.76640625 28.5521875 -3.125 27.75 C-5.89862589 22.39903559 -9.59008948 20.34547319 -15 18 C-15 17.01 -15 16.02 -15 15 C-14.41992188 14.75507813 -13.83984375 14.51015625 -13.2421875 14.2578125 C-6.32161813 10.94598888 -3.36362872 6.79321094 0 0 Z " fill="#EBC353" transform="translate(93,13)"/>
<path d="M0 0 C0.61875 0.8353125 0.61875 0.8353125 1.25 1.6875 C1.8275 2.450625 2.405 3.21375 3 4 C3.61875 4.845625 4.2375 5.69125 4.875 6.5625 C7.06041491 9.06929946 9.07655364 10.45706998 12 12 C11 15 11 15 8.1875 16.75 C4.28877459 19.50204146 3.10763299 21.78473403 1 26 C-2.9020979 22.47552448 -2.9020979 22.47552448 -3.4375 19.875 C-3.623125 19.25625 -3.80875 18.6375 -4 18 C-6.37625345 16.81608777 -6.37625345 16.81608777 -9 16 C-9.99 15.34 -10.98 14.68 -12 14 C-12 13.34 -12 12.68 -12 12 C-10.948125 11.505 -9.89625 11.01 -8.8125 10.5 C-4.36358512 8.00426726 -2.32812846 4.42022546 0 0 Z " fill="#EAC352" transform="translate(125,30)"/>
<path d="M0 0 C0.721875 0.7425 1.44375 1.485 2.1875 2.25 C4.68592573 4.69290515 7.23643202 6.8681047 10 9 C8.75004375 12.74986874 7.09908146 13.62163516 4 16 C2.64852862 17.31494512 1.30887458 18.64264858 0 20 C-0.48210938 19.43410156 -0.96421875 18.86820313 -1.4609375 18.28515625 C-2.09257813 17.55167969 -2.72421875 16.81820312 -3.375 16.0625 C-4.00148438 15.33160156 -4.62796875 14.60070312 -5.2734375 13.84765625 C-6.87747714 11.91619094 -6.87747714 11.91619094 -9 11 C-7.6618467 6.9855401 -5.23686108 5.64233558 -2 3 C-1.34 2.01 -0.68 1.02 0 0 Z " fill="#E8C157" transform="translate(62,34)"/>
<path d="M0 0 C3.72617422 1.24205807 5.39291457 3.1110675 8 6 C8 8 8 8 5.6875 10.5625 C3 13 3 13 0 14 C-0.12375 13.071875 -0.12375 13.071875 -0.25 12.125 C-0.81258459 9.81562433 -0.81258459 9.81562433 -3.0625 8.75 C-3.701875 8.5025 -4.34125 8.255 -5 8 C-4.34 6.68 -3.68 5.36 -3 4 C-2.34 4 -1.68 4 -1 4 C-0.67 2.68 -0.34 1.36 0 0 Z " fill="#E4C769" transform="translate(68,11)"/>
<path d="M0 0 C2.01136276 2.55991624 3.62845496 5.04590299 5 8 C3.9275 8.103125 2.855 8.20625 1.75 8.3125 C-1.99918971 8.99985145 -3.10133762 9.80101475 -6 12 C-8.25 11.6875 -8.25 11.6875 -10 11 C-9.278125 10.67 -8.55625 10.34 -7.8125 10 C-4.03823265 7.31607655 -2.22909499 3.99339996 0 0 Z " fill="#E7C461" transform="translate(125,30)"/>
<path d="M0 0 C0.33 0 0.66 0 1 0 C4.25224172 13.51546356 1.84787883 26.29163192 -3 39 C-4.28385175 35.14844474 -3.29190137 33.80393181 -2 30 C-1.78213084 28.56678839 -1.59503865 27.12859128 -1.4375 25.6875 C-1 22 -1 22 0 21 C0.08685603 19.43827255 0.10702219 17.87270656 0.09765625 16.30859375 C0.09443359 15.36435547 0.09121094 14.42011719 0.08789062 13.44726562 C0.07951172 12.45404297 0.07113281 11.46082031 0.0625 10.4375 C0.05798828 9.44041016 0.05347656 8.44332031 0.04882812 7.41601562 C0.03700007 4.94395151 0.02051849 2.47200482 0 0 Z " fill="#E6CB78" transform="translate(152,102)"/>
<path d="M0 0 C0.66 0.33 1.32 0.66 2 1 C2.02891546 5.45831982 2.04676981 9.91661569 2.0625 14.375 C2.07087891 15.64601563 2.07925781 16.91703125 2.08789062 18.2265625 C2.09111328 19.43828125 2.09433594 20.65 2.09765625 21.8984375 C2.10289307 23.01911621 2.10812988 24.13979492 2.11352539 25.29443359 C2 28 2 28 1 30 C0.34 30 -0.32 30 -1 30 C-0.83628906 29.09121094 -0.67257813 28.18242187 -0.50390625 27.24609375 C0.26393579 21.87119944 0.1062149 16.47978455 0.0625 11.0625 C0.05798828 9.99708984 0.05347656 8.93167969 0.04882812 7.83398438 C0.03711787 5.22259709 0.02071724 2.61132876 0 0 Z " fill="#FCFADD" transform="translate(153,102)"/>
<path d="M0 0 C0.99 0.33 1.98 0.66 3 1 C3.25 6.625 3.25 6.625 1 10 C0.34 10 -0.32 10 -1 10 C-1 8.35 -1 6.7 -1 5 C-1.66 5 -2.32 5 -3 5 C-1.125 1.125 -1.125 1.125 0 0 Z " fill="#EAC352" transform="translate(69,15)"/>
<path d="M0 0 C1.258125 -0.020625 2.51625 -0.04125 3.8125 -0.0625 C4.52019531 -0.07410156 5.22789063 -0.08570313 5.95703125 -0.09765625 C8 0 8 0 11 1 C12.33363703 1.14403348 13.67218046 1.24590423 15.01171875 1.31640625 C16.14770508 1.37924805 16.14770508 1.37924805 17.30664062 1.44335938 C18.48516602 1.50233398 18.48516602 1.50233398 19.6875 1.5625 C20.88342773 1.62727539 20.88342773 1.62727539 22.10351562 1.69335938 C24.06881447 1.79927368 26.03438496 1.90012551 28 2 C28 2.33 28 2.66 28 3 C24.64590806 3.05859857 21.29194983 3.09379582 17.9375 3.125 C16.99455078 3.14175781 16.05160156 3.15851563 15.08007812 3.17578125 C9.63476062 3.21372771 5.14500612 2.81252643 0 1 C0 0.67 0 0.34 0 0 Z " fill="#E5CF81" transform="translate(76,173)"/>
<path d="M0 0 C0.66 0.33 1.32 0.66 2 1 C-0.31 3.64 -2.62 6.28 -5 9 C-6.32 8.67 -7.64 8.34 -9 8 C-10.25 5.4375 -10.25 5.4375 -11 3 C-8.525 4.98 -8.525 4.98 -6 7 C-4.02 4.69 -2.04 2.38 0 0 Z " fill="#FCF7D8" transform="translate(69,46)"/>
<path d="M0 0 C0.33 0.66 0.66 1.32 1 2 C-1.12081604 6.32018082 -2.79664822 9.44796499 -7 12 C-7.66 11.67 -8.32 11.34 -9 11 C-8.51789063 10.45730469 -8.03578125 9.91460937 -7.5390625 9.35546875 C-6.90742188 8.64003906 -6.27578125 7.92460937 -5.625 7.1875 C-4.68527344 6.12595703 -4.68527344 6.12595703 -3.7265625 5.04296875 C-1.859401 2.91196181 -1.859401 2.91196181 0 0 Z " fill="#FBF6D7" transform="translate(145,147)"/>
</svg>
